{"title":"Milly Quezada - Lo Que Mas (h264/mp4)","uid":7082370,"size":58042901,"categoryP":"video","categoryS":"music_videos","magnet":"?xt=urn:btih:acda38c902004df3973f98f043fe05241d7be7e1&amp;dn=Milly+Quezada+-+Lo+Que+Mas+%28h264%2Fmp4%29&amp;tr=udp%3A%2F%2Ftracker.openbittorrent.com%3A80&amp;tr=udp%3A%2F%2Fopen.demonii.com%3A1337&amp;tr=udp%3A%2F%2Ftracker.coppersurfer.tk%3A6969&amp;tr=udp%3A%2F%2Fexodus.desync.com%3A6969","seeders":1,"leechers":0,"uploader":"MusicVideos-HQ","files":1,"time":1331077270,"description":"General\n\n\nFormat                           : MPEG-4\nFormat profile                   : Base Media\nCodec ID                         : isom\nFile size                        : 55.4 MiB\nDuration                         : 3mn 59s\nOverall bit rate                 : 1 935 Kbps\nEncoded date                     : UTC 2012-03-06 16:34:02\nTagged date                      : UTC 2012-03-06 16:34:02\n\nVideo\nID                               : 1\nFormat                           : AVC\nFormat/Info                      : Advanced Video Codec\nFormat profile                   : &lt;a class=&quot;__cf_email__&quot; href=&quot;/cdn-cgi/l/email-protection&quot; data-cfemail=&quot;f1b9989699b1bdc2dfc1&quot;&gt;[email&amp;#160;protected]&lt;/a&gt;&lt;script cf-hash='f9e31' type=&quot;text/javascript&quot;&gt;\n/* &lt;![CDATA[ */!function(){try{var t=&quot;currentScript&quot;in document?document.currentScript:function(){for(var t=document.getElementsByTagName(&quot;script&quot;),e=t.length;e--;)if(t[e].getAttribute(&quot;cf-hash&quot;))return t[e]}();if(t&amp;&amp;t.previousSibling){var e,r,n,i,c=t.previousSibling,a=c.getAttribute(&quot;data-cfemail&quot;);if(a){for(e=&quot;&quot;,r=parseInt(a.substr(0,2),16),n=2;a.length-n;n+=2)i=parseInt(a.substr(n,2),16)^r,e+=String.fromCharCode(i);e=document.createTextNode(e),c.parentNode.replaceChild(e,c)}}}catch(u){}}();/* ]]&gt; */&lt;/script&gt;\nFormat settings, CABAC           : Yes\nFormat settings, ReFrames        : 2 frames\nCodec ID                         : avc1\nCodec ID/Info                    : Advanced Video Coding\nDuration                         : 3mn 59s\nBit rate mode                    : Variable\nBit rate                         : 1 866 Kbps\nMaximum bit rate                 : 4 944 Kbps\nWidth                            : 720 pixels\nHeight                           : 480 pixels\nDisplay aspect ratio             : 4:3\nOriginal display aspect ratio    : 4:3\nFrame rate mode                  : Constant\nFrame rate                       : 25.000 fps\nStandard                         : NTSC\nColor space                      : YUV\nChroma subsampling               : 4:2:0\nBit depth                        : 8 bits\nScan type                        : Progressive\nBits/(Pixel*Frame)               : 0.216\nStream size                      : 53.4 MiB (96%)\n\n\nAudio\nID                               : 2\nFormat                           : AAC\nFormat/Info                      : Advanced Audio Codec\nFormat profile                   : LC\nCodec ID                         : 40\nDuration                         : 3mn 59s\nBit rate mode                    : Variable\nBit rate                         : 62.2 Kbps\nMaximum bit rate                 : 79.7 Kbps\nChannel(s)                       : 2 channels\nChannel positions                : Front: L R\nSampling rate                    : 44.1 KHz\nCompression mode                 : Lossy\nStream size                      : 1.78 MiB (3%)\n\n\n","torrent":{"xt":"urn:btih:acda38c902004df3973f98f043fe05241d7be7e1","amp;dn":"Milly+Quezada+-+Lo+Que+Mas+%28h264%2Fmp4%29","amp;tr":["udp%3A%2F%2Ftracker.openbittorrent.com%3A80","udp%3A%2F%2Fopen.demonii.com%3A1337","udp%3A%2F%2Ftracker.coppersurfer.tk%3A6969","udp%3A%2F%2Fexodus.desync.com%3A6969"],"infoHash":"acda38c902004df3973f98f043fe05241d7be7e1","infoHashBuffer":{"type":"Buffer","data":[172,218,56,201,2,0,77,243,151,63,152,240,67,254,5,36,29,123,231,225]},"announce":[],"urlList":[]}}